HIERARCHY
ROOT Hips
{
 OFFSET 0.000000 0.000000 0.000000
 CHANNELS 6 Xposition Yposition Zposition Yrotation Xrotation Zrotation
 JOINT Chest
 {
  OFFSET 0.000000 9.585900 0.002600
  CHANNELS 3 Yrotation Xrotation Zrotation
  JOINT Chest2
  {
   OFFSET 0.000000 9.601200 -0.005300
   CHANNELS 3 Yrotation Xrotation Zrotation
   JOINT Chest3
   {
    OFFSET 0.000000 9.561800 0.000000
    CHANNELS 3 Yrotation Xrotation Zrotation
    JOINT Chest4
    {
     OFFSET 0.000000 9.552100 0.000000
     CHANNELS 3 Yrotation Xrotation Zrotation
     JOINT Neck
     {
      OFFSET 0.000000 14.453000 0.000000
      CHANNELS 3 Yrotation Xrotation Zrotation
      JOINT Head
      {
       OFFSET 0.000000 8.936500 -0.011300
       CHANNELS 3 Yrotation Xrotation Zrotation
       End Site
       {
        OFFSET 0.000000 17.073600 -0.006000
       }
      }
     }
     JOINT RightCollar
     {
      OFFSET -2.921100 9.558500 0.000000
      CHANNELS 3 Yrotation Xrotation Zrotation
      JOINT RightShoulder
      {
       OFFSET -13.519700 0.000000 0.000000
       CHANNELS 3 Yrotation Xrotation Zrotation
       JOINT RightElbow
       {
        OFFSET 0.000000 -29.696600 0.000000
        CHANNELS 3 Yrotation Xrotation Zrotation
        JOINT RightWrist
        {
         OFFSET 0.000000 -24.004700 0.000000
         CHANNELS 3 Yrotation Xrotation Zrotation
         End Site
         {
          OFFSET 0.000000 -17.728500 0.000000
         }
        }
       }
      }
     }
     JOINT LeftCollar
     {
      OFFSET 2.921100 9.558500 0.000000
      CHANNELS 3 Yrotation Xrotation Zrotation
      JOINT LeftShoulder
      {
       OFFSET 13.519700 0.000000 0.000000
       CHANNELS 3 Yrotation Xrotation Zrotation
       JOINT LeftElbow
       {
        OFFSET 0.000000 -29.696600 0.000000
        CHANNELS 3 Yrotation Xrotation Zrotation
        JOINT LeftWrist
        {
         OFFSET 0.000000 -24.004700 0.000000
         CHANNELS 3 Yrotation Xrotation Zrotation
         End Site
         {
          OFFSET 0.000000 -17.728500 0.000000
         }
        }
       }
      }
     }
    }
   }
  }
 }
 JOINT RightHip
 {
  OFFSET -7.771700 -0.012900 -0.001300
  CHANNELS 3 Yrotation Xrotation Zrotation
  JOINT RightKnee
  {
   OFFSET 0.000000 -40.869800 0.001200
   CHANNELS 3 Yrotation Xrotation Zrotation
   JOINT RightAnkle
   {
    OFFSET 0.000000 -39.717900 0.002100
    CHANNELS 3 Yrotation Xrotation Zrotation
    JOINT RightToe
    {
     OFFSET 0.000000 -4.965400 11.033500
     CHANNELS 3 Yrotation Xrotation Zrotation
     End Site
     {
      OFFSET 0.000000 -1.423100 5.872300
     }
    }
   }
  }
 }
 JOINT LeftHip
 {
  OFFSET 7.771700 -0.012900 -0.001300
  CHANNELS 3 Yrotation Xrotation Zrotation
  JOINT LeftKnee
  {
   OFFSET 0.000000 -40.869800 0.001200
   CHANNELS 3 Yrotation Xrotation Zrotation
   JOINT LeftAnkle
   {
    OFFSET 0.000000 -39.717900 0.002100
    CHANNELS 3 Yrotation Xrotation Zrotation
    JOINT LeftToe
    {
     OFFSET 0.000000 -4.965400 11.033500
     CHANNELS 3 Yrotation Xrotation Zrotation
     End Site
     {
      OFFSET 0.000000 -1.423100 5.872300
     }
    }
   }
  }
 }
}
MOTION
Frames: 17
Frame Time: 0.008333
0.000000 85.388000 0.000000 0.000000 -5.767877 0.000000 0.000000 11.653817 0.000000 0.000000 -5.885947 0.000000 0.000000 -0.000000 0.000000 0.000000 -0.000000 0.000000 0.000000 12.528835 0.000000 0.000000 0.711642 0.000000 0.000000 -0.000000 0.000000 0.000000 0.000000 -90.000000 0.000000 -2.309062 0.000000 0.000000 2.309062 0.000000 0.000000 -0.000000 0.000000 0.000000 -0.000000 90.000000 0.000000 -2.309062 0.000000 0.000000 2.309062 0.000000 0.000000 8.520406 0.000000 0.000000 1.905762 0.000000 -0.000000 -4.658285 0.000000 0.000000 -0.000000 0.000000 0.000000 8.520406 0.000000 0.000000 1.905762 0.000000 -0.000000 -4.658285 0.000000 0.000000 -0.000000 0.000000
-30.577517 62.097559 12.473235 174.204990 -53.570708 1.829064 3.073257 26.713809 2.954706 0.332850 4.527630 0.477039 0.571594 7.162326 0.771641 2.081374 21.707712 2.662737 4.833811 19.368068 -2.036741 9.459578 0.475451 -5.204989 4.188005 6.493718 3.613854 -4.738218 -6.628368 -13.791264 -108.877801 -56.731560 146.034878 10.156723 12.856676 -4.949316 -11.121716 1.195140 1.283261 -8.267625 -37.433846 13.801403 114.191730 -54.446290 -135.841856 29.268259 -0.215201 5.492955 3.936375 -13.751685 -6.388382 -0.955510 61.371067 -4.773744 2.051259 -6.645274 10.555943 0.125396 -0.481240 0.049279 -2.410810 -10.015687 2.084661 22.897247 76.755076 22.819795 0.922146 -12.193997 -3.299943 0.239395 0.652666 0.072755
-30.577751 62.097462 12.473989 174.189928 -53.568953 1.832650 3.076249 26.719544 2.958691 0.337295 4.523569 0.477290 0.557314 7.177111 0.772060 2.098941 21.693324 2.661182 4.799426 19.317937 -1.989690 9.400949 0.362289 -5.121968 4.127324 6.511044 3.683225 -4.711992 -6.731664 -13.799839 -108.876309 -56.717960 146.016773 10.154978 12.848729 -4.965851 -11.090061 1.375675 1.267766 -7.811245 -36.714709 13.649676 114.478453 -55.093665 -135.936380 28.833843 0.243761 5.535794 3.935815 -13.753603 -6.378770 -0.964777 61.364535 -4.788951 2.053489 -6.646328 10.566445 0.125054 -0.472836 0.042428 -2.421199 -10.015466 2.075913 22.938609 76.753418 22.870657 0.930124 -12.195687 -3.310602 0.232114 0.657984 0.079207
-30.575338 62.098169 12.475005 174.170513 -53.573855 1.823200 3.087078 26.726166 2.978408 0.343651 4.523414 0.478776 0.549940 7.184635 0.767644 2.104890 21.693270 2.666332 4.768364 19.257283 -1.943286 9.346788 0.234165 -5.026897 4.087814 6.524700 3.729038 -4.704181 -6.828974 -13.791755 -108.880042 -56.707661 146.000422 10.154212 12.840666 -4.978114 -11.050130 1.553045 1.246392 -7.369333 -35.951154 13.533629 114.680312 -55.740173 -135.979596 28.445716 0.662164 5.505368 3.938007 -13.749993 -6.349219 -0.994828 61.357549 -4.819257 2.059587 -6.641284 10.573099 0.125865 -0.469967 0.038432 -2.430964 -10.007547 2.076599 23.004793 76.749047 22.970210 0.916234 -12.194400 -3.346932 0.267791 0.654587 0.081243
-30.576648 62.098599 12.476873 174.162997 -53.577216 1.825904 3.079452 26.733725 2.971143 0.329470 4.534889 0.468238 0.564156 7.183531 0.772489 2.104252 21.693164 2.666398 4.747651 19.190405 -1.886385 9.297194 0.090025 -4.918119 4.059155 6.539772 3.774952 -4.698853 -6.923721 -13.786297 -108.829651 -56.732650 145.964583 10.156685 12.792666 -5.024874 -10.994450 1.731694 1.228169 -6.949222 -35.147974 13.452237 114.767670 -56.366192 -135.968434 28.098821 1.019647 5.412008 3.941366 -13.746393 -6.344055 -1.007478 61.353034 -4.835842 2.061153 -6.642167 10.582861 0.126285 -0.464200 0.038184 -2.439209 -10.003630 2.060268 23.070787 76.741544 23.051137 0.919079 -12.189156 -3.359150 0.274407 0.652654 0.075421
-30.576232 62.099628 12.479429 174.136798 -53.585908 1.833676 3.087100 26.747352 2.970799 0.328243 4.543003 0.466513 0.568863 7.184492 0.774545 2.087087 21.722873 2.653416 4.744202 19.095402 -1.815071 9.253435 -0.067736 -4.794229 4.042781 6.534377 3.819536 -4.693250 -7.017822 -13.784323 -108.880216 -56.710422 145.965312 10.157880 12.805679 -5.014957 -10.915997 1.890103 1.220512 -6.560384 -34.311362 13.403260 114.717680 -56.953938 -135.897966 27.760748 1.313787 5.289387 3.955059 -13.736981 -6.327482 -1.018429 61.344313 -4.846279 2.058086 -6.640440 10.584587 0.126471 -0.458478 0.041782 -2.437749 -9.991357 2.054489 23.130598 76.732189 23.125252 0.932323 -12.183826 -3.374697 0.255624 0.653340 0.085415
-30.577861 62.100088 12.483381 174.112594 -53.591197 1.852391 3.086455 26.761905 2.954047 0.327088 4.550758 0.465388 0.582293 7.173770 0.782642 2.064430 21.761647 2.637791 4.741134 19.003195 -1.735243 9.218591 -0.232941 -4.653131 4.021134 6.540364 3.855592 -4.690008 -7.111702 -13.784012 -108.940959 -56.694609 145.974526 10.145251 12.843885 -4.960355 -10.832561 2.057810 1.211357 -6.208608 -33.450323 13.380850 114.534626 -57.500419 -135.764760 27.424165 1.573107 5.158295 3.971033 -13.728772 -6.328049 -1.010338 61.331599 -4.836897 2.052156 -6.642608 10.584696 0.128923 -0.448093 0.045974 -2.432811 -9.982478 2.020112 23.240155 76.712157 23.256358 0.971674 -12.179564 -3.388586 0.229353 0.658137 0.076259
-30.579526 62.100220 12.488720 174.108425 -53.595103 1.855986 3.055484 26.789468 2.913701 0.344382 4.547302 0.475571 0.581666 7.180143 0.785525 2.062502 21.779292 2.624711 4.741751 18.917494 -1.643547 9.196770 -0.400090 -4.492640 3.997917 6.556971 3.888241 -4.694026 -7.200767 -13.784544 -108.978973 -56.694836 145.984553 10.129241 12.851731 -4.923986 -10.738751 2.237175 1.207217 -5.896225 -32.575421 13.375079 114.205442 -58.004823 -135.553396 27.094399 1.825498 5.033917 3.974821 -13.724992 -6.329046 -1.005707 61.324544 -4.831525 2.048026 -6.641400 10.584033 0.133207 -0.447219 0.051057 -2.437359 -9.978558 2.002168 23.269477 76.701173 23.299679 0.985235 -12.172612 -3.391723 0.234275 0.660252 0.068139
-30.581426 62.100429 12.495127 174.103245 -53.599676 1.863114 3.043021 26.809869 2.887273 0.344763 4.555278 0.474082 0.565594 7.222061 0.766396 2.083699 21.764263 2.629599 4.755173 18.831670 -1.539633 9.194466 -0.567431 -4.313760 3.978032 6.572689 3.916654 -4.686662 -7.281238 -13.786390 -108.984938 -56.696118 145.991485 10.139715 12.822075 -4.967526 -10.624781 2.417340 1.211703 -5.620964 -31.693879 13.376466 113.726797 -58.471418 -135.252993 26.773729 2.083897 4.931634 3.980552 -13.719191 -6.332637 -0.998885 61.315896 -4.824705 2.046073 -6.646191 10.580967 0.130896 -0.436912 0.056693 -2.444292 -9.974569 1.985311 23.289034 76.691472 23.325808 0.999936 -12.163955 -3.397558 0.235154 0.660943 0.061743
-30.580375 62.101535 12.502186 174.082074 -53.610131 1.867445 3.049244 26.839000 2.877861 0.351752 4.549669 0.482723 0.565913 7.228417 0.765103 2.070211 21.804731 2.607538 4.783875 18.745306 -1.424790 9.216409 -0.735538 -4.119654 3.960983 6.586626 3.938037 -4.701297 -7.348470 -13.789467 -109.059122 -56.686470 146.014113 10.146745 12.807358 -5.003805 -10.494249 2.594314 1.220622 -5.380923 -30.806284 13.384130 113.122785 -58.908735 -134.862191 26.467845 2.353782 4.852470 3.993491 -13.705338 -6.315414 -0.998383 61.297411 -4.825943 2.047214 -6.643362 10.583270 0.124747 -0.430610 0.058555 -2.448043 -9.963094 1.989506 23.322169 76.684523 23.356172 1.017144 -12.155983 -3.399458 0.209165 0.658267 0.060100
-30.578304 62.103112 12.510037 174.071072 -53.622550 1.859531 3.052284 26.873304 2.871177 0.358958 4.541831 0.493972 0.554586 7.273534 0.743636 2.073969 21.814490 2.598698 4.820019 18.663765 -1.352364 9.270461 -0.923104 -3.863234 3.948110 6.595534 3.952297 -4.743039 -7.398888 -13.790297 -109.121367 -56.673134 146.043716 10.140416 12.802273 -5.002373 -10.354645 2.761894 1.228538 -5.160708 -29.905480 13.395553 112.406527 -59.314009 -134.386789 26.175492 2.635092 4.793387 4.000436 -13.690330 -6.295332 -0.992051 61.281533 -4.817608 2.045256 -6.641793 10.583360 0.123558 -0.425729 0.059164 -2.452516 -9.950060 1.998362 23.327476 76.678901 23.373580 1.018983 -12.148243 -3.419252 0.206357 0.655976 0.070113
-30.578666 62.103541 12.519619 174.078612 -53.623166 1.852610 3.039731 26.901596 2.844819 0.355659 4.545277 0.494671 0.556145 7.310183 0.730700 2.081890 21.823858 2.591128 4.879517 18.566381 -1.190887 9.336110 -1.094707 -3.663756 3.933165 6.600081 3.960134 -4.782910 -7.435326 -13.785610 -109.164354 -56.663356 146.067776 10.135685 12.796635 -4.995578 -10.218800 2.915100 1.230107 -4.937543 -28.984455 13.404509 111.588489 -59.686648 -133.846077 25.896383 2.914897 4.758936 4.000579 -13.689158 -6.291930 -0.993049 61.270483 -4.816695 2.039360 -6.640588 10.581992 0.128582 -0.422558 0.062194 -2.465943 -9.948658 1.986817 23.394930 76.646765 23.463236 0.981693 -12.126004 -3.458463 0.236591 0.655438 0.090355
-30.582426 62.104651 12.529480 174.077909 -53.623324 1.874661 3.026740 26.935276 2.795319 0.349704 4.586796 0.472243 0.570467 7.295664 0.746929 2.088622 21.844128 2.578997 4.952493 18.466194 -1.018140 9.413604 -1.275986 -3.450233 3.907986 6.608237 3.962291 -4.834668 -7.461385 -13.774512 -109.197695 -56.654223 146.093383 10.127519 12.790328 -4.986643 -10.097302 3.056032 1.224723 -4.700891 -28.041611 13.413672 110.699009 -60.028846 -133.267899 25.646243 3.176215 4.747066 4.009269 -13.686200 -6.307169 -0.996932 61.258574 -4.823270 2.006878 -6.633004 10.574409 0.155672 -0.434569 0.074182 -2.477046 -9.949497 1.954586 23.456819 76.624681 23.528703 0.955504 -12.126628 -3.497787 0.261246 0.670162 0.118792
-30.583001 62.105615 12.540594 174.075376 -53.616419 1.880237 3.029819 26.965080 2.766190 0.352326 4.607665 0.463610 0.577061 7.299838 0.749671 2.100488 21.862582 2.567019 5.030031 18.363676 -0.864260 9.512697 -1.473850 -3.200978 3.893401 6.571308 3.984426 -4.911822 -7.429135 -13.781109 -109.234752 -56.646498 146.129673 10.114970 12.781814 -4.982468 -9.992203 3.188882 1.222566 -4.437568 -27.076986 13.424477 109.763424 -60.322140 -132.672992 25.428402 3.408915 4.741452 4.014122 -13.690290 -6.305154 -0.992010 61.244268 -4.821926 1.987399 -6.643368 10.572924 0.161813 -0.423341 0.078192 -2.506829 -9.956607 1.938395 23.542453 76.601045 23.604350 0.958078 -12.107368 -3.519456 0.252620 0.667885 0.119602
-30.578017 62.107783 12.552049 174.066863 -53.611295 1.858396 3.054820 26.988521 2.778559 0.359595 4.628702 0.453629 0.583637 7.313625 0.746134 2.117312 21.879203 2.556032 5.117750 18.254995 -0.704466 9.628563 -1.682917 -2.944579 3.835712 6.612346 3.970557 -4.958446 -7.453248 -13.744188 -109.283850 -56.641667 146.180831 10.100089 12.770225 -4.982759 -9.902438 3.312639 1.231172 -4.149771 -26.090264 13.437956 108.804472 -60.552434 -132.070856 25.234357 3.601783 4.736637 4.010516 -13.692456 -6.271602 -0.975698 61.223223 -4.808109 1.988082 -6.662630 10.573471 0.147681 -0.405509 0.073336 -2.533440 -9.958525 1.958314 23.598219 76.583762 23.648211 0.995920 -12.080146 -3.524948 0.209406 0.653521 0.102855
-30.575779 62.110334 12.563793 174.054507 -53.599960 1.855948 3.070799 26.987131 2.784976 0.374099 4.673683 0.428170 0.591386 7.326641 0.742794 2.138022 21.894620 2.546352 5.213942 18.140604 -0.542171 9.759148 -1.902220 -2.686654 3.769409 6.654547 3.952520 -5.012828 -7.463738 -13.700203 -109.345964 -56.641129 146.249743 10.082493 12.757126 -4.985700 -9.825382 3.425290 1.248915 -3.857324 -25.080590 13.460805 107.862195 -60.733738 -131.484994 25.073003 3.743675 4.754263 4.005791 -13.704373 -6.243289 -0.981247 61.208110 -4.830934 1.969508 -6.665767 10.568967 0.160373 -0.404515 0.081288 -2.545863 -9.966781 1.963927 23.617224 76.567956 23.663166 1.010827 -12.071530 -3.538019 0.196587 0.657277 0.101353
-30.571679 62.109888 12.578507 174.048411 -53.557134 1.834893 3.106580 26.989116 2.788958 0.382292 4.686637 0.424550 0.600025 7.339797 0.739118 2.161238 21.910071 2.535844 5.318212 18.020538 -0.380945 9.905016 -2.131476 -2.433747 3.730858 6.612729 3.981758 -5.104730 -7.385544 -13.703610 -109.423870 -56.645406 146.340030 10.062038 12.745145 -4.991060 -9.756739 3.529314 1.278243 -3.563055 -24.052209 13.491504 106.957677 -60.879714 -130.942142 24.962313 3.839022 4.811533 3.998125 -13.746993 -6.212865 -0.968742 61.184393 -4.822122 1.960146 -6.670663 10.558138 0.165366 -0.397524 0.085466 -2.552009 -10.008941 1.986872 23.575922 76.555369 23.634563 1.021767 -12.065078 -3.560579 0.196096 0.666660 0.107425
